<svg width="140" height="129" viewBox="0 0 140 129" fill="none" xmlns="http://www.w3.org/2000/svg">
<rect width="140" height="129" rx="16" fill="#FFEDAF" fill-opacity="0.72"/>
<path fill-rule="evenodd" clip-rule="evenodd" d="M70.1588 64.4521L70.1622 109.41L115.43 86.9352V41.995L70.1588 64.4521Z" fill="#D9D9D9"/>
<path fill-rule="evenodd" clip-rule="evenodd" d="M24.8939 86.9349L70.1621 109.41V64.4697L24.8939 41.9947V86.9349Z" fill="#F3F3F3"/>
<path fill-rule="evenodd" clip-rule="evenodd" d="M70.1624 19.5252L24.8945 41.9719L70.1624 64.4648L115.43 41.995L70.1624 19.5252Z" fill="#F3F3F3"/>
<path fill-rule="evenodd" clip-rule="evenodd" d="M24.8939 41.9947V42.0968L70.1621 64.5724L70.1624 64.368L24.997 41.9437L24.8939 41.9947Z" fill="#B2B5B5"/>
<path fill-rule="evenodd" clip-rule="evenodd" d="M70.1624 64.3681L70.1621 64.5722L115.43 42.0964V41.9943L115.328 41.9433L70.1624 64.3681Z" fill="#B2B5B5"/>
<path fill-rule="evenodd" clip-rule="evenodd" d="M70.1622 64.47L115.43 41.9947L70.1622 64.47Z" fill="#94816C"/>
<path fill-rule="evenodd" clip-rule="evenodd" d="M70.1621 70.0102V64.47C70.1621 64.47 67.5868 82.0963 70.1621 109.41V102.37C69.1652 87.5832 69.665 76.2825 70.1621 70.0102" fill="#D9D9D9"/>
<path fill-rule="evenodd" clip-rule="evenodd" d="M70.1623 107.032V65.3579C69.6651 71.6299 69.165 92.2453 70.1623 107.032" fill="#B2B5B5"/>
<path fill-rule="evenodd" clip-rule="evenodd" d="M49.3691 77.4894L42.8365 74.2461V51.0221L49.3691 54.2655V77.4894Z" fill="#F8AE3A"/>
<path fill-rule="evenodd" clip-rule="evenodd" d="M42.8327 51.0246L49.3654 54.2671L95.0689 31.8867L88.5359 28.6441L42.8327 51.0246Z" fill="#F8AE3A"/>
<path fill-rule="evenodd" clip-rule="evenodd" d="M40.2451 61.0294L28.8236 57.7301L27.4761 50.6631L38.8974 53.9626L40.2451 61.0294Z" fill="white"/>
<path fill-rule="evenodd" clip-rule="evenodd" d="M30.4424 57.0248L30.1648 56.9446L29.2907 52.3604L29.5683 52.4405L30.4424 57.0248Z" fill="#1C1C1C"/>
<path fill-rule="evenodd" clip-rule="evenodd" d="M30.7633 57.1174L30.6245 57.0774L29.7504 52.4931L29.8892 52.5335L30.7633 57.1174Z" fill="#1C1C1C"/>
<path fill-rule="evenodd" clip-rule="evenodd" d="M31.0843 57.2102L30.9455 57.1702L30.0714 52.5859L30.2099 52.626L31.0843 57.2102Z" fill="#1C1C1C"/>
<path fill-rule="evenodd" clip-rule="evenodd" d="M31.4052 57.3029L31.2664 57.2628L30.3923 52.6785L30.5308 52.7189L31.4052 57.3029Z" fill="#1C1C1C"/>
<path fill-rule="evenodd" clip-rule="evenodd" d="M31.7261 57.3956L31.5873 57.3555L30.7132 52.7712L30.852 52.8113L31.7261 57.3956Z" fill="#1C1C1C"/>
<path fill-rule="evenodd" clip-rule="evenodd" d="M32.1856 57.5284L31.908 57.4482L31.0339 52.864L31.3115 52.9441L32.1856 57.5284Z" fill="#1C1C1C"/>
<path fill-rule="evenodd" clip-rule="evenodd" d="M33.426 57.8866L33.2872 57.8466L32.4131 53.2623L32.5519 53.3027L33.426 57.8866Z" fill="#1C1C1C"/>
<path fill-rule="evenodd" clip-rule="evenodd" d="M33.7469 57.9794L33.6081 57.9393L32.734 53.355L32.8728 53.3951L33.7469 57.9794Z" fill="#1C1C1C"/>
<path fill-rule="evenodd" clip-rule="evenodd" d="M34.2066 58.1121L33.929 58.0319L33.0549 53.4477L33.3325 53.5281L34.2066 58.1121Z" fill="#1C1C1C"/>
<path fill-rule="evenodd" clip-rule="evenodd" d="M32.6454 57.6611L32.3677 57.581L31.4936 52.9967L31.7713 53.0772L32.6454 57.6611Z" fill="#1C1C1C"/>
<path fill-rule="evenodd" clip-rule="evenodd" d="M33.1051 57.794L32.8275 57.7138L31.9534 53.1296L32.231 53.2097L33.1051 57.794Z" fill="#1C1C1C"/>
<path fill-rule="evenodd" clip-rule="evenodd" d="M34.6663 58.2448L34.3886 58.1647L33.5145 53.5804L33.7919 53.6609L34.6663 58.2448Z" fill="#1C1C1C"/>
<path fill-rule="evenodd" clip-rule="evenodd" d="M34.9872 58.3377L34.8484 58.2976L33.9742 53.7133L34.1131 53.7534L34.9872 58.3377Z" fill="#1C1C1C"/>
<path fill-rule="evenodd" clip-rule="evenodd" d="M35.3081 58.4304L35.1693 58.3903L34.2952 53.806L34.434 53.8461L35.3081 58.4304Z" fill="#1C1C1C"/>
<path fill-rule="evenodd" clip-rule="evenodd" d="M35.629 58.523L35.4901 58.4829L34.616 53.8987L34.7548 53.9387L35.629 58.523Z" fill="#1C1C1C"/>
<path fill-rule="evenodd" clip-rule="evenodd" d="M35.9499 58.6158L35.8111 58.5757L34.9369 53.9915L35.0757 54.0316L35.9499 58.6158Z" fill="#1C1C1C"/>
<path fill-rule="evenodd" clip-rule="evenodd" d="M36.4096 58.7485L36.132 58.6684L35.2578 54.0841L35.5355 54.1643L36.4096 58.7485Z" fill="#1C1C1C"/>
<path fill-rule="evenodd" clip-rule="evenodd" d="M37.6497 59.1068L37.5109 59.0667L36.6368 54.4825L36.7756 54.5225L37.6497 59.1068Z" fill="#1C1C1C"/>
<path fill-rule="evenodd" clip-rule="evenodd" d="M37.9707 59.1996L37.8318 59.1595L36.9577 54.5753L37.0965 54.6153L37.9707 59.1996Z" fill="#1C1C1C"/>
<path fill-rule="evenodd" clip-rule="evenodd" d="M38.4304 59.3323L38.1527 59.2522L37.2786 54.6679L37.5562 54.748L38.4304 59.3323Z" fill="#1C1C1C"/>
<path fill-rule="evenodd" clip-rule="evenodd" d="M36.8691 58.8813L36.5915 58.8011L35.7174 54.2169L35.995 54.2973L36.8691 58.8813Z" fill="#1C1C1C"/>
<path fill-rule="evenodd" clip-rule="evenodd" d="M37.3289 59.0141L37.0512 58.934L36.1771 54.3497L36.4547 54.4299L37.3289 59.0141Z" fill="#1C1C1C"/>
<path fill-rule="evenodd" clip-rule="evenodd" d="M66.9638 73.2215L52.6246 66.1022V59.3324L66.9638 66.4516V73.2215Z" fill="white"/>
<path fill-rule="evenodd" clip-rule="evenodd" d="M31.7102 87.84C31.7102 88.0329 31.5525 88.111 31.3582 88.0145L26.8157 85.7594C26.6215 85.6628 26.4638 85.4281 26.4638 85.2352V80.7254C26.4638 80.5325 26.6215 80.4544 26.8157 80.5509L31.3582 82.806C31.5525 82.9026 31.7102 83.1373 31.7102 83.3302V87.84ZM31.6347 82.6786L26.5393 80.1485C26.3499 80.0548 26.1969 80.1309 26.1969 80.3186V85.3771C26.1969 85.5648 26.3499 85.7931 26.5393 85.8871L31.6347 88.417C31.8238 88.5107 31.9771 88.4348 31.9771 88.2469V83.1883C31.9771 83.0007 31.8238 82.7723 31.6347 82.6786V82.6786Z" fill="#1C1C1C"/>
<path fill-rule="evenodd" clip-rule="evenodd" d="M28.1589 85.6209L27.8368 85.4609V81.9883L28.1589 82.1483V85.6209Z" fill="#1C1C1C"/>
<path fill-rule="evenodd" clip-rule="evenodd" d="M27.998 81.6141L27.5595 82.2685L27.998 82.4859L28.4362 82.7036L27.998 81.6141Z" fill="#1C1C1C"/>
<path fill-rule="evenodd" clip-rule="evenodd" d="M30.337 86.7023L30.015 86.5423V83.0697L30.337 83.2297V86.7023Z" fill="#1C1C1C"/>
<path fill-rule="evenodd" clip-rule="evenodd" d="M30.176 82.6954L29.7378 83.3498L30.176 83.5672L30.6145 83.7849L30.176 82.6954Z" fill="#1C1C1C"/>
<path fill-rule="evenodd" clip-rule="evenodd" d="M27.1062 85.5734V85.2539L31.0679 87.2207V87.5401L27.1062 85.5734Z" fill="#1C1C1C"/>
<path fill-rule="evenodd" clip-rule="evenodd" d="M38.5638 91.2425C38.5638 91.4357 38.4064 91.5138 38.2118 91.4172L33.6693 89.1618C33.475 89.0655 33.3174 88.8309 33.3174 88.638V84.1281C33.3174 83.9352 33.475 83.8571 33.6693 83.9537L38.2118 86.2088C38.4064 86.3054 38.5638 86.54 38.5638 86.7329V91.2425ZM38.4883 86.0814L33.3929 83.5513C33.2038 83.4576 33.0505 83.5337 33.0505 83.7214V88.7799C33.0505 88.9675 33.2038 89.1959 33.3929 89.2899L38.4883 91.8197C38.6774 91.9134 38.8307 91.8373 38.8307 91.6496V86.5911C38.8307 86.4034 38.6774 86.1751 38.4883 86.0814V86.0814Z" fill="#1C1C1C"/>
<path fill-rule="evenodd" clip-rule="evenodd" d="M37.142 88.6025V88.6025C36.7116 88.3888 36.3625 87.869 36.3625 87.4421V85.6549L37.9214 86.429V88.2156C37.9214 88.6431 37.5723 88.8161 37.142 88.6025" fill="#1C1C1C"/>
<path fill-rule="evenodd" clip-rule="evenodd" d="M37.2331 90.441L37.0511 90.3505V88.4817L37.2331 88.5722V90.441Z" fill="#1C1C1C"/>
<path fill-rule="evenodd" clip-rule="evenodd" d="M36.3626 90.1349V90.1349C36.3626 90.0348 36.4442 89.9945 36.545 90.0446L37.7391 90.6371C37.8396 90.6872 37.9215 90.8089 37.9215 90.909L36.3626 90.1349Z" fill="#1C1C1C"/>
<path fill-rule="evenodd" clip-rule="evenodd" d="M35.3582 86.9431C35.3582 87.2821 35.0803 87.4199 34.7391 87.2504C34.3976 87.0812 34.12 86.6675 34.12 86.3284V84.7007L35.3582 85.3153V86.9431ZM33.9597 84.4622V86.2488C33.9597 86.6761 34.3087 87.1959 34.7391 87.4095C35.1695 87.6232 35.5183 87.4502 35.5183 87.0226V85.236L33.9597 84.4622Z" fill="#1C1C1C"/>
<path fill-rule="evenodd" clip-rule="evenodd" d="M34.8303 89.2478L34.6479 89.1575V87.2885L34.8303 87.3793V89.2478Z" fill="#1C1C1C"/>
<path fill-rule="evenodd" clip-rule="evenodd" d="M33.9598 88.942V88.942C33.9598 88.8419 34.0414 88.8016 34.1421 88.8515L35.336 89.4442C35.4368 89.4941 35.5184 89.6157 35.5184 89.7158L33.9598 88.942Z" fill="#1C1C1C"/>
<path fill-rule="evenodd" clip-rule="evenodd" d="M45.4174 94.6452C45.4174 94.8383 45.26 94.9165 45.0654 94.8199L40.5229 92.5645C40.3286 92.4682 40.1709 92.2335 40.1709 92.0407V87.5308C40.1709 87.3379 40.3286 87.2598 40.5229 87.3564L45.0654 89.6115C45.26 89.708 45.4174 89.9427 45.4174 90.1356V94.6452ZM45.3419 89.4841L40.2465 86.9539C40.0574 86.8602 39.9041 86.9363 39.9041 87.124V92.1825C39.9041 92.3702 40.0574 92.5983 40.2465 92.6925L45.3419 95.2221C45.531 95.3161 45.6843 95.24 45.6843 95.0523V89.9938C45.6843 89.8061 45.531 89.5778 45.3419 89.4841V89.4841Z" fill="#1C1C1C"/>
<path fill-rule="evenodd" clip-rule="evenodd" d="M41.7585 90.4635C41.9066 90.4098 42.0994 90.4286 42.3106 90.5332C42.5217 90.6382 42.7148 90.8112 42.8629 91.0118C43.0107 90.9582 43.2039 90.9766 43.415 91.0819C43.6261 91.1865 43.8192 91.3592 43.967 91.5602C44.1151 91.5065 44.3083 91.5253 44.5194 91.6299C44.5656 91.653 44.6109 91.6792 44.655 91.7081C44.5748 90.7662 43.812 89.6793 42.8824 89.218C41.9542 88.757 41.1928 89.0839 41.1103 89.9428C41.1417 89.9549 41.1739 89.969 41.2065 89.9852C41.4176 90.0898 41.6104 90.2631 41.7585 90.4635" fill="#1C1C1C"/>
<path fill-rule="evenodd" clip-rule="evenodd" d="M42.5055 93.2549C42.2441 93.1252 42.0312 92.8081 42.0312 92.5486V92.4583C42.0312 92.405 42.0751 92.3834 42.1288 92.4099C42.1826 92.4367 42.2261 92.5016 42.2261 92.5549V92.6455C42.2261 92.7983 42.3516 92.9848 42.5055 93.0612C42.6597 93.1379 42.7848 93.0756 42.7848 92.9228V89.0016C42.7848 88.9483 42.8284 88.9267 42.8821 88.9535C42.9361 88.9803 42.9797 89.0449 42.9797 89.0985V93.0197C42.9797 93.2791 42.7668 93.3847 42.5055 93.2549" fill="#1C1C1C"/>
<path fill-rule="evenodd" clip-rule="evenodd" d="M72.5371 24.4923L60.4909 30.4716L60.1159 30.2857L72.1622 24.306L72.5371 24.4923Z" fill="#1C1C1C"/>
<path fill-rule="evenodd" clip-rule="evenodd" d="M73.7193 25.079L61.6731 31.0586L61.2981 30.8724L73.3444 24.8927L73.7193 25.079Z" fill="#1C1C1C"/>
<path fill-rule="evenodd" clip-rule="evenodd" d="M74.9014 25.6657L62.8552 31.6454L62.4803 31.4591L74.5265 25.4795L74.9014 25.6657Z" fill="#1C1C1C"/>
<path fill-rule="evenodd" clip-rule="evenodd" d="M76.0835 26.2526L64.0373 32.2319L63.6623 32.046L75.7086 26.0664L76.0835 26.2526Z" fill="#1C1C1C"/>
<path fill-rule="evenodd" clip-rule="evenodd" d="M74.5997 51.4193L62.5535 57.3989L62.1786 57.2126L74.2248 51.233L74.5997 51.4193Z" fill="#1C1C1C"/>
<path fill-rule="evenodd" clip-rule="evenodd" d="M75.7818 52.006L63.7356 57.9856L63.3607 57.7994L75.4069 51.8201L75.7818 52.006Z" fill="#1C1C1C"/>
<path fill-rule="evenodd" clip-rule="evenodd" d="M76.964 52.5929L64.9178 58.5722L64.5429 58.3863L76.5891 52.4066L76.964 52.5929Z" fill="#1C1C1C"/>
<path fill-rule="evenodd" clip-rule="evenodd" d="M78.1461 53.1796L66.0999 59.1593L65.725 58.973L77.7712 52.9934L78.1461 53.1796Z" fill="#1C1C1C"/>
</svg>
