<svg width="16" height="17" viewBox="0 0 16 17" fill="none" xmlns="http://www.w3.org/2000/svg">
<g id="map-marker" clip-path="url(#clip0)">
<path id="Vector" d="M7.38338 16.1772C2.84281 9.59472 2 8.91916 2 6.5C2 3.18628 4.68628 0.5 8 0.5C11.3137 0.5 14 3.18628 14 6.5C14 8.91916 13.1572 9.59472 8.61662 16.1772C8.31866 16.6076 7.68131 16.6076 7.38338 16.1772ZM8 9C9.38072 9 10.5 7.88072 10.5 6.5C10.5 5.11928 9.38072 4 8 4C6.61928 4 5.5 5.11928 5.5 6.5C5.5 7.88072 6.61928 9 8 9Z" fill="#FFEDAF" fill-opacity="0.72"/>
</g>
<defs>
<clipPath id="clip0">
<rect width="16" height="16" fill="white" transform="translate(0 0.5)"/>
</clipPath>
</defs>
</svg>
