<svg width="16" height="17" viewBox="0 0 16 17" fill="none" xmlns="http://www.w3.org/2000/svg">
<g id="phone">
<path id="Vector" d="M15.4187 1.26907L12.1688 0.519088C11.8157 0.437839 11.4532 0.62221 11.3095 0.953453L9.80949 4.45338C9.67825 4.75962 9.76574 5.11899 10.0251 5.32836L11.9188 6.87833C10.7938 9.27515 8.82826 11.2689 6.38144 12.4157L4.83147 10.522C4.61898 10.2626 4.26274 10.1751 3.95649 10.3064L0.456566 11.8063C0.122198 11.9532 -0.0621732 12.3157 0.0190751 12.6688L0.769059 15.9188C0.847183 16.2563 1.14718 16.5 1.50029 16.5C9.50325 16.5 16 10.0158 16 2.00031C16 1.65031 15.7594 1.3472 15.4187 1.26907Z" fill="#FFEDAF" fill-opacity="0.72"/>
</g>
</svg>
