<svg width="64" height="64" viewBox="0 0 64 64" fill="none" xmlns="http://www.w3.org/2000/svg">
<g filter="url(#filter0_d)">
<circle cx="32" cy="30" r="22" fill="#F8AE3A"/>
</g>
<path fill-rule="evenodd" clip-rule="evenodd" d="M23 26L32 19L41 26V37C41 38.1046 40.1046 39 39 39H25C23.8954 39 23 38.1046 23 37V26Z" stroke="white" stroke-width="1.5" stroke-linecap="round" stroke-linejoin="round"/>
<path fill-rule="evenodd" clip-rule="evenodd" d="M27 32C26.7239 32 26.5 32.2239 26.5 32.5C26.5 32.7761 26.7239 33 27 33H37C37.2761 33 37.5 32.7761 37.5 32.5C37.5 32.2239 37.2761 32 37 32H27ZM27 35C26.7239 35 26.5 35.2239 26.5 35.5C26.5 35.7761 26.7239 36 27 36H37C37.2761 36 37.5 35.7761 37.5 35.5C37.5 35.2239 37.2761 35 37 35H27Z" fill="white"/>
<defs>
<filter id="filter0_d" x="0" y="0" width="64" height="64" filterUnits="userSpaceOnUse" color-interpolation-filters="sRGB">
<feFlood flood-opacity="0" result="BackgroundImageFix"/>
<feColorMatrix in="SourceAlpha" type="matrix" values="0 0 0 0 0 0 0 0 0 0 0 0 0 0 0 0 0 0 127 0" result="hardAlpha"/>
<feOffset dy="2"/>
<feGaussianBlur stdDeviation="5"/>
<feColorMatrix type="matrix" values="0 0 0 0 0.657495 0 0 0 0 0.657495 0 0 0 0 0.657495 0 0 0 0.2 0"/>
<feBlend mode="normal" in2="BackgroundImageFix" result="effect1_dropShadow"/>
<feBlend mode="normal" in="SourceGraphic" in2="effect1_dropShadow" result="shape"/>
</filter>
</defs>
</svg>
