<svg width="64" height="64" viewBox="0 0 64 64" fill="none" xmlns="http://www.w3.org/2000/svg">
<g filter="url(#filter0_d)">
<circle cx="32" cy="30" r="22" fill="#F8AE3A"/>
</g>
<path fill-rule="evenodd" clip-rule="evenodd" d="M41.4001 34.6789V22.0124C41.4001 21.4601 40.9524 21.0124 40.4001 21.0124H35.5661H31.9984H27.5221C26.9702 21.0124 26.5226 21.4596 26.5221 22.0115L26.5148 30.4301H24C23.4477 30.4301 23 30.8778 23 31.4301V37.8002C23 38.3524 23.4477 38.8002 24 38.8002H26.8337C27.3309 38.8002 27.7339 38.3971 27.7339 37.9V37.9H41.3894C42.2775 37.9 43 37.1775 43 36.2894C43 35.4048 42.2833 34.6848 41.4001 34.6789Z" fill="white"/>
<path fill-rule="evenodd" clip-rule="evenodd" d="M26.5106 37.0768C26.5106 37.3529 26.2868 37.5768 26.0106 37.5768H24.7233C24.4471 37.5768 24.2233 37.3529 24.2233 37.0768V32.1533C24.2233 31.8772 24.4471 31.6533 24.7233 31.6533H26.0106C26.2868 31.6533 26.5106 31.8772 26.5106 32.1533V37.0768Z" fill="#F8AE3A"/>
<path fill-rule="evenodd" clip-rule="evenodd" d="M27.7449 22.7353C27.7451 22.4593 27.9689 22.2357 28.2449 22.2357H31.9985H35.5661H39.6769C39.953 22.2357 40.1769 22.4596 40.1769 22.7357V34.1787C40.1769 34.4549 39.953 34.6787 39.6769 34.6787H33.8864C33.7444 34.6787 33.6289 34.5632 33.6289 34.4213C33.6289 34.2793 33.7444 34.1638 33.8864 34.1638H36.0761C37.004 34.1638 37.759 33.4088 37.759 32.4809C37.759 31.6523 37.1408 30.9365 36.3209 30.8159L34.416 30.5358C32.6281 30.2729 31.4951 30.5288 30.0297 31.093L27.7367 32.0756L27.7449 22.7353Z" fill="#F8AE3A"/>
<path fill-rule="evenodd" clip-rule="evenodd" d="M41.3893 36.6767H27.7339V34.9798H27.7341L27.7355 33.4068L30.4798 32.2304C31.9754 31.6556 32.8549 31.5425 34.238 31.7459L36.1429 32.026C36.3668 32.059 36.5357 32.2545 36.5357 32.4807C36.5357 32.7342 36.3295 32.9404 36.076 32.9404H33.8863C33.0698 32.9404 32.4055 33.6046 32.4055 34.4211C32.4055 35.2376 33.0698 35.9018 33.8863 35.9018H41.3893C41.6029 35.9018 41.7767 36.0756 41.7767 36.2893C41.7767 36.5029 41.6029 36.6767 41.3893 36.6767Z" fill="#F8AE3A"/>
<defs>
<filter id="filter0_d" x="0" y="0" width="64" height="64" filterUnits="userSpaceOnUse" color-interpolation-filters="sRGB">
<feFlood flood-opacity="0" result="BackgroundImageFix"/>
<feColorMatrix in="SourceAlpha" type="matrix" values="0 0 0 0 0 0 0 0 0 0 0 0 0 0 0 0 0 0 127 0" result="hardAlpha"/>
<feOffset dy="2"/>
<feGaussianBlur stdDeviation="5"/>
<feColorMatrix type="matrix" values="0 0 0 0 0.657495 0 0 0 0 0.657495 0 0 0 0 0.657495 0 0 0 0.2 0"/>
<feBlend mode="normal" in2="BackgroundImageFix" result="effect1_dropShadow"/>
<feBlend mode="normal" in="SourceGraphic" in2="effect1_dropShadow" result="shape"/>
</filter>
</defs>
</svg>
