<svg width="64" height="64" viewBox="0 0 64 64" fill="none" xmlns="http://www.w3.org/2000/svg">
<g filter="url(#filter0_d)">
<circle cx="32" cy="30" r="22" fill="#F8AE3A"/>
</g>
<path fill-rule="evenodd" clip-rule="evenodd" d="M40.5228 36.3875V30.0031C40.5221 29.4335 40.1659 28.9073 39.5881 28.6225L33.0457 25.4303C32.4673 25.1452 31.7548 25.1452 31.1764 25.4303L24.634 28.6225C24.0562 28.9073 23.7 29.4335 23.6993 30.0031V36.3875C23.7 36.9571 24.0562 37.4833 24.634 37.7681L31.1764 40.9603C31.7548 41.2454 32.4673 41.2454 33.0457 40.9603L39.5881 37.7681C40.1659 37.4833 40.5221 36.9571 40.5228 36.3875Z" stroke="white" stroke-width="1.2" stroke-linecap="round" stroke-linejoin="round"/>
<path fill-rule="evenodd" clip-rule="evenodd" d="M24.1977 28.6767C23.9226 28.5408 23.5894 28.6536 23.4536 28.9287C23.3177 29.2038 23.4305 29.537 23.7056 29.6729L31.5555 33.5501V41.2412C31.5555 41.548 31.8042 41.7968 32.111 41.7968C32.4179 41.7968 32.6666 41.548 32.6666 41.2412V33.5501L40.5164 29.6729C40.7915 29.537 40.9044 29.2038 40.7685 28.9287C40.6326 28.6536 40.2995 28.5408 40.0244 28.6767L32.111 32.5853L24.1977 28.6767Z" fill="white"/>
<path fill-rule="evenodd" clip-rule="evenodd" d="M31.4334 18.6779C31.4334 18.4039 31.6555 18.1818 31.9295 18.1818H32.2451C32.5191 18.1818 32.7412 18.4039 32.7412 18.6779V21.2031C32.7412 21.4771 32.5191 21.6991 32.2451 21.6991H31.9295C31.6555 21.6991 31.4334 21.4771 31.4334 21.2031V18.6779ZM39.723 20.3722C39.927 20.1893 40.2577 20.1893 40.4617 20.3722L40.6477 20.539C40.8517 20.7219 40.8517 21.0184 40.6477 21.2012L38.6123 23.0261C38.4083 23.209 38.0776 23.209 37.8736 23.0261L37.6876 22.8593C37.4836 22.6764 37.4836 22.3799 37.6876 22.1971L39.723 20.3722ZM23.5271 20.539C23.3232 20.7218 23.3232 21.0183 23.5271 21.2012L25.5626 23.0261C25.7665 23.209 26.0972 23.209 26.3012 23.0261L26.4873 22.8593C26.6912 22.6764 26.6912 22.3799 26.4873 22.197L24.4518 20.3722C24.2478 20.1893 23.9171 20.1893 23.7132 20.3722L23.5271 20.539Z" fill="white"/>
<defs>
<filter id="filter0_d" x="0" y="0" width="64" height="64" filterUnits="userSpaceOnUse" color-interpolation-filters="sRGB">
<feFlood flood-opacity="0" result="BackgroundImageFix"/>
<feColorMatrix in="SourceAlpha" type="matrix" values="0 0 0 0 0 0 0 0 0 0 0 0 0 0 0 0 0 0 127 0" result="hardAlpha"/>
<feOffset dy="2"/>
<feGaussianBlur stdDeviation="5"/>
<feColorMatrix type="matrix" values="0 0 0 0 0.657495 0 0 0 0 0.657495 0 0 0 0 0.657495 0 0 0 0.2 0"/>
<feBlend mode="normal" in2="BackgroundImageFix" result="effect1_dropShadow"/>
<feBlend mode="normal" in="SourceGraphic" in2="effect1_dropShadow" result="shape"/>
</filter>
</defs>
</svg>
