<svg width="102" height="101" viewBox="0 0 102 101" fill="none" xmlns="http://www.w3.org/2000/svg">
<circle cx="50.8668" cy="50.3556" r="50.3556" fill="#F8AE3A"/>
<path fill-rule="evenodd" clip-rule="evenodd" d="M70.3744 64.9758V50.3627C70.3728 49.0588 69.5576 47.8545 68.2351 47.2026L53.2602 39.896C51.9364 39.2434 50.3054 39.2434 48.9816 39.896L34.0067 47.2026C32.6843 47.8545 31.869 49.0588 31.8674 50.3627V64.9758C31.869 66.2796 32.6843 67.4839 34.0067 68.1359L48.9816 75.4424C50.3054 76.095 51.9364 76.095 53.2602 75.4424L68.2351 68.1359C69.5576 67.4839 70.3728 66.2796 70.3744 64.9758Z" stroke="white" stroke-width="2" stroke-linecap="round" stroke-linejoin="round"/>
<path fill-rule="evenodd" clip-rule="evenodd" d="M32.8878 47.57C32.3926 47.3254 31.7929 47.5286 31.5484 48.0237C31.3038 48.5189 31.5069 49.1186 32.0021 49.3632L50.1208 58.3125V76.0854C50.1208 76.6377 50.5685 77.0854 51.1208 77.0854C51.673 77.0854 52.1208 76.6377 52.1208 76.0854V58.3126L70.2396 49.3632C70.7348 49.1186 70.9379 48.5189 70.6933 48.0237C70.4487 47.5286 69.849 47.3254 69.3539 47.57L51.1208 56.5758L32.8878 47.57Z" fill="white"/>
<path fill-rule="evenodd" clip-rule="evenodd" d="M49.5702 23.8011C49.5702 23.5272 49.7923 23.3051 50.0662 23.3051H52.0674C52.3414 23.3051 52.5634 23.5272 52.5634 23.8011V30.8598C52.5634 31.1338 52.3414 31.3558 52.0674 31.3558H50.0662C49.7923 31.3558 49.5702 31.1338 49.5702 30.8598V23.8011ZM69.0202 27.8918C69.2242 27.7089 69.5549 27.7089 69.7589 27.8918L71.1367 29.1271C71.3407 29.31 71.3407 29.6065 71.1367 29.7894L65.5258 34.8199C65.3218 35.0028 64.9911 35.0028 64.7872 34.8199L63.4093 33.5846C63.2053 33.4017 63.2053 33.1052 63.4093 32.9223L69.0202 27.8918ZM30.9976 29.1271C30.7936 29.31 30.7936 29.6065 30.9976 29.7893L36.6085 34.8198C36.8125 35.0027 37.1432 35.0027 37.3472 34.8198L38.725 33.5845C38.929 33.4016 38.929 33.1051 38.725 32.9222L33.1141 27.8918C32.9101 27.7089 32.5794 27.7089 32.3755 27.8918L30.9976 29.1271Z" fill="white"/>
</svg>
