<svg width="102" height="101" viewBox="0 0 102 101" fill="none" xmlns="http://www.w3.org/2000/svg">
<circle cx="51.1778" cy="50.3556" r="50.3556" fill="#F8AE3A"/>
<path fill-rule="evenodd" clip-rule="evenodd" d="M72.6936 61.0651V30.784C72.6936 30.2317 72.2459 29.784 71.6936 29.784H59.3401H51.1741H39.6406C39.0886 29.784 38.6411 30.2312 38.6406 30.7831L38.6227 51.34H31.5778C31.0255 51.34 30.5778 51.7877 30.5778 52.34V69.4982C30.5778 70.0504 31.0255 70.4982 31.5778 70.4982H40.4131C40.9654 70.4982 41.4131 70.0504 41.4131 69.4982V68.4378H72.669C74.7018 68.4378 76.3556 66.784 76.3556 64.7513C76.3555 62.7266 74.7151 61.0786 72.6936 61.0651Z" fill="white"/>
<path fill-rule="evenodd" clip-rule="evenodd" d="M38.6132 67.198C38.6132 67.4741 38.3893 67.698 38.1132 67.698H33.8777C33.6015 67.698 33.3777 67.4741 33.3777 67.198V54.6398C33.3777 54.3637 33.6015 54.1398 33.8777 54.1398H38.1132C38.3893 54.1398 38.6132 54.3637 38.6132 54.6398V67.198Z" fill="#F8AE3A"/>
<path fill-rule="evenodd" clip-rule="evenodd" d="M41.4388 33.0835C41.439 32.8076 41.6628 32.584 41.9388 32.584H51.1742H59.3402H69.3938C69.6699 32.584 69.8938 32.8078 69.8938 33.084V60.5646C69.8938 60.8408 69.6699 61.0646 69.3938 61.0646H55.4955C55.1705 61.0646 54.9061 60.8003 54.9061 60.4754C54.9061 60.1504 55.1705 59.8861 55.4955 59.8861H60.5075C62.6315 59.8861 64.3595 58.158 64.3595 56.0341C64.3595 54.1375 62.9444 52.4991 61.0679 52.223L56.7078 51.5819C52.6155 50.9803 50.0221 51.566 46.668 52.8574L41.4196 55.1064L41.4388 33.0835Z" fill="#F8AE3A"/>
<path fill-rule="evenodd" clip-rule="evenodd" d="M72.669 65.6378H41.4132V61.7537H41.4137L41.417 58.1533L47.6983 55.4607C51.1215 54.1451 53.1347 53.8861 56.3005 54.3518L60.6605 54.9928C61.173 55.0683 61.5595 55.5158 61.5595 56.0337C61.5595 56.6139 61.0876 57.0857 60.5075 57.0857H55.4954C53.6266 57.0857 52.1061 58.6061 52.1061 60.475C52.1061 62.3438 53.6266 63.8642 55.4954 63.8642H72.669C73.158 63.8642 73.5557 64.262 73.5557 64.751C73.5557 65.2401 73.158 65.6378 72.669 65.6378Z" fill="#F8AE3A"/>
</svg>
