<svg width="102" height="101" viewBox="0 0 102 101" fill="none" xmlns="http://www.w3.org/2000/svg">
<circle cx="51.1111" cy="50.6444" r="50.3556" fill="#F8AE3A"/>
<path fill-rule="evenodd" clip-rule="evenodd" d="M30.511 41.4889L51.111 25.4666L71.711 41.4889V66.6667C71.711 69.1949 69.6615 71.2444 67.1332 71.2444H35.0888C32.5605 71.2444 30.511 69.1949 30.511 66.6667V41.4889Z" stroke="white" stroke-width="2" stroke-linecap="round" stroke-linejoin="round"/>
<path fill-rule="evenodd" clip-rule="evenodd" d="M39.6667 55.6166C39.2525 55.6166 38.9167 55.9524 38.9167 56.3666C38.9167 56.7809 39.2525 57.1166 39.6667 57.1166H62.5556C62.9699 57.1166 63.3056 56.7809 63.3056 56.3666C63.3056 55.9524 62.9699 55.6166 62.5556 55.6166H39.6667ZM39.6667 62.4833C39.2525 62.4833 38.9167 62.8191 38.9167 63.2333C38.9167 63.6475 39.2525 63.9833 39.6667 63.9833H62.5556C62.9699 63.9833 63.3056 63.6475 63.3056 63.2333C63.3056 62.8191 62.9699 62.4833 62.5556 62.4833H39.6667Z" fill="white"/>
</svg>
